<?xml version="1.0" encoding="UTF-8" standalone="no"?>
<!-- Created with Inkscape (http://www.inkscape.org/) -->
<svg
   xmlns:dc="http://purl.org/dc/elements/1.1/"
   xmlns:cc="http://web.resource.org/cc/"
   xmlns:rdf="http://www.w3.org/1999/02/22-rdf-syntax-ns#"
   xmlns:svg="http://www.w3.org/2000/svg"
   xmlns="http://www.w3.org/2000/svg"
   xmlns:xlink="http://www.w3.org/1999/xlink"
   xmlns:sodipodi="http://sodipodi.sourceforge.net/DTD/sodipodi-0.dtd"
   xmlns:inkscape="http://www.inkscape.org/namespaces/inkscape"
   width="744.09448819"
   height="1052.3622047"
   id="svg2"
   sodipodi:version="0.32"
   inkscape:version="0.45"
   sodipodi:docbase="/home/vhmauery/local/pyrobox/theme/flames/images"
   sodipodi:docname="favicon.svg"
   inkscape:output_extension="org.inkscape.output.svg.inkscape"
   inkscape:export-filename="/home/vhmauery/flame.png"
   inkscape:export-xdpi="5.0578203"
   inkscape:export-ydpi="5.0578203"
   sodipodi:modified="true">
  <defs
     id="defs4">
    <linearGradient
       id="linearGradient3136">
      <stop
         style="stop-color:#ee2b00;stop-opacity:1;"
         offset="0"
         id="stop3138" />
      <stop
         style="stop-color:#f3ff00;stop-opacity:1;"
         offset="1"
         id="stop3140" />
    </linearGradient>
    <linearGradient
       inkscape:collect="always"
       xlink:href="#linearGradient3136"
       id="linearGradient3142"
       x1="284.73438"
       y1="654.51807"
       x2="212.00363"
       y2="255.8569"
       gradientUnits="userSpaceOnUse"
       gradientTransform="matrix(1.0001832,0,0,0.9760142,-5.6257762e-2,17.049398)" />
    <linearGradient
       inkscape:collect="always"
       xlink:href="#linearGradient3136"
       id="linearGradient6216"
       gradientUnits="userSpaceOnUse"
       x1="284.73438"
       y1="654.51807"
       x2="212.00363"
       y2="255.8569"
       gradientTransform="matrix(0.760399,0,0,0.7420243,-48.515282,149.84645)" />
    <linearGradient
       inkscape:collect="always"
       xlink:href="#linearGradient3136"
       id="linearGradient6220"
       gradientUnits="userSpaceOnUse"
       gradientTransform="matrix(0.7043471,0,0,0.6873269,236.58933,169.61477)"
       x1="284.73438"
       y1="654.51807"
       x2="212.00363"
       y2="255.8569" />
  </defs>
  <sodipodi:namedview
     id="base"
     pagecolor="#ffffff"
     bordercolor="#666666"
     borderopacity="1.0"
     gridtolerance="10000"
     guidetolerance="10"
     objecttolerance="10"
     inkscape:pageopacity="0.0"
     inkscape:pageshadow="2"
     inkscape:zoom="0.98994949"
     inkscape:cx="366.91878"
     inkscape:cy="656.87513"
     inkscape:document-units="px"
     inkscape:current-layer="layer1"
     inkscape:window-width="1092"
     inkscape:window-height="947"
     inkscape:window-x="235"
     inkscape:window-y="30" />
  <metadata
     id="metadata7">
    <rdf:RDF>
      <cc:Work
         rdf:about="">
        <dc:format>image/svg+xml</dc:format>
        <dc:type
           rdf:resource="http://purl.org/dc/dcmitype/StillImage" />
      </cc:Work>
    </rdf:RDF>
  </metadata>
  <g
     inkscape:label="Layer 1"
     inkscape:groupmode="layer"
     id="layer1">
    <path
       style="opacity:1;fill:url(#linearGradient6216);fill-opacity:1;fill-rule:evenodd;stroke:#ee2b00;stroke-width:7.51155519;stroke-linecap:butt;stroke-linejoin:miter;stroke-miterlimit:4;stroke-dasharray:none;stroke-opacity:0.76100631"
       d="M 193.44219,674.37606 C 232.42789,543.10775 69.83562,548.63199 92.050495,440.51404 C 115.37325,499.32404 165.79285,528.8792 178.07983,517.71848 C 215.67573,485.32745 97.713728,408.81988 146.58696,283.10689 C 158.4757,337.89259 155.5041,422.2527 198.81903,419.52642 C 214.30566,416.65211 228.01317,358.45032 221.86261,325.08213 C 288.1241,390.98791 191.52869,518.26392 250.28301,546.95123 C 273.13637,560.97509 299.47662,489.00202 307.12382,447.26005 C 345.52976,544.95241 235.95561,587.77421 256.42796,675.12561"
       id="path6214"
       sodipodi:nodetypes="ccccccccc"
       inkscape:export-xdpi="39.98452"
       inkscape:export-ydpi="39.98452" />
    <path
       style="opacity:1;fill:url(#linearGradient6220);fill-opacity:1;fill-rule:evenodd;stroke:#ee2b00;stroke-width:6.95784998;stroke-linecap:butt;stroke-linejoin:miter;stroke-miterlimit:4;stroke-dasharray:none;stroke-opacity:0.76100631"
       d="M 460.71119,655.47931 C 496.82312,533.88728 346.21613,539.00431 366.79346,438.85614 C 388.397,493.33103 435.09999,520.70757 446.48125,510.36954 C 481.30582,480.36618 372.03924,409.49828 417.30983,293.05206 C 428.3222,343.7993 425.56965,421.94091 465.69168,419.41559 C 480.03674,416.75316 492.73381,362.84163 487.03663,331.93316 C 548.41375,392.98078 458.93873,510.8748 513.36206,537.44745 C 534.53081,550.43757 558.92943,483.76989 566.01292,445.10488 C 601.58781,535.59597 500.09079,575.2612 519.05405,656.17362"
       id="path6218"
       sodipodi:nodetypes="ccccccccc"
       inkscape:export-xdpi="39.98452"
       inkscape:export-ydpi="39.98452" />
    <path
       style="opacity:1;fill:url(#linearGradient3142);fill-opacity:1;fill-rule:evenodd;stroke:#ee2b00;stroke-width:9.88024807;stroke-linecap:butt;stroke-linejoin:miter;stroke-miterlimit:4;stroke-dasharray:none;stroke-opacity:0.76100631"
       d="M 318.20008,706.98409 C 369.47952,534.32165 155.61541,541.58792 184.83553,399.37605 C 215.51288,476.73119 281.83177,515.60627 297.99334,500.92614 C 347.44474,458.32091 192.28461,357.68747 256.5695,192.33216 C 272.20725,264.39397 268.29857,375.35619 325.27245,371.77019 C 345.64262,367.9895 363.67266,291.43436 355.58258,247.54387 C 442.73898,334.23237 315.68316,501.64359 392.96507,539.37714 C 423.02499,557.82329 457.67138,463.15423 467.73005,408.24936 C 518.24693,536.74801 374.11968,593.07322 401.04777,707.97002"
       id="path2164"
       sodipodi:nodetypes="ccccccccc"
       inkscape:export-xdpi="39.98452"
       inkscape:export-ydpi="39.98452" />
    <rect
       style="opacity:1;fill:none;fill-opacity:1;fill-rule:nonzero;stroke:none;stroke-width:0;stroke-linecap:round;stroke-linejoin:miter;stroke-miterlimit:0;stroke-dasharray:none;stroke-opacity:0.76078431"
       id="rect6224"
       width="545.58228"
       height="534.37042"
       x="34.295219"
       y="174.58556" />
  </g>
</svg>
